<?xml version="1.0" encoding="utf-8"?>
<!-- Generator: Adobe Illustrator 24.1.2, SVG Export Plug-In . SVG Version: 6.00 Build 0)  -->
<svg version="1.1" id="Ebene_1" xmlns="http://www.w3.org/2000/svg" xmlns:xlink="http://www.w3.org/1999/xlink" x="0px" y="0px"
	 width="37.9746px" height="9.0068px" viewBox="0 0 37.9746 9.0068" style="enable-background:new 0 0 37.9746 9.0068;"
	 xml:space="preserve">
<style type="text/css">
	.st0{fill:#FFFFFF;}
</style>
<g>
	<polygon class="st0" points="0,2.3506 2.3384,2.3506 2.3384,9.0068 4.7012,9.0068 4.7012,2.3506 7.0879,2.3506 7.0879,0 0,0 	"/>
	<path class="st0" d="M12.5498,0.0117c-2.4829,0-4.4858,2.0269-4.4858,4.5098c0,2.4824,2.0029,4.4854,4.4858,4.4854
		c2.4824,0,4.4976-2.0029,4.4976-4.4854C17.0474,2.0386,15.0322,0.0117,12.5498,0.0117z"/>
	<path class="st0" d="M22.0298,0.0117h-3.334v8.9951h3.334c2.4829,0,4.4976-2.0151,4.4976-4.4976S24.5127,0.0117,22.0298,0.0117z"/>
	<path class="st0" d="M33.0918,6.5483c-0.022,0-0.0444-0.001-0.0664-0.002c-0.0219-0.0014-0.0429-0.006-0.0645-0.0087
		c-0.2123,0.0708-0.4352,0.1186-0.6713,0.1186c-1.1753,0-2.1348-0.9717-2.1348-2.147c0-1.1875,0.9595-2.147,2.1348-2.147
		c0.5989,0,1.1388,0.2452,1.5278,0.6397l1.5673-1.7366c-0.8071-0.7719-1.8933-1.2537-3.0951-1.2537
		c-2.4829,0-4.4858,2.0269-4.4858,4.5098c0,2.4824,2.0029,4.4854,4.4858,4.4854c2.4824,0,4.4976-2.0029,4.4976-4.4854
		c0-0.4519-0.0869-0.88-0.211-1.2922l-2.6679,2.9563C33.6978,6.418,33.4033,6.5483,33.0918,6.5483z"/>
	<path class="st0" d="M37.7563,1.5483c0.3135-0.3477,0.2861-0.8862-0.062-1.2002c-0.1685-0.1514-0.3887-0.2212-0.6128-0.2183
		c-0.2266,0.0117-0.4351,0.1108-0.5874,0.2793l-3.3198,3.6787l-0.5815-0.8271c-0.1655-0.2349-0.4292-0.3604-0.6968-0.3604
		c-0.1689,0-0.3394,0.0498-0.4878,0.1543c-0.3833,0.269-0.4756,0.8003-0.2061,1.1841l1.1943,1.6982
		c0.1245,0.1768,0.3096,0.2988,0.521,0.3428l0.0005,0.0005c0.04,0.0083,0.0811,0.0137,0.1226,0.0161
		c0.2573,0.0239,0.5078-0.0859,0.6821-0.2788L37.7563,1.5483z"/>
</g>
</svg>
